<svg width="15" height="15" viewBox="0 0 15 15" fill="none" xmlns="http://www.w3.org/2000/svg">
<path fill-rule="evenodd" clip-rule="evenodd" d="M3.89146 4.14083L6.49102 1.64959C7.11966 1.04714 8.1114 1.04714 8.74004 1.64959L11.3396 4.14083H12.8441C13.2037 4.14083 13.48 4.45937 13.4291 4.81541L12.561 10.8925C12.4362 11.766 11.6881 12.4148 10.8058 12.4148H4.42528C3.54295 12.4148 2.79489 11.766 2.67011 10.8925L1.80195 4.8154C1.75109 4.45937 2.02736 4.14083 2.38701 4.14083H3.89146ZM7.10439 2.28963C7.39014 2.01579 7.84093 2.01579 8.12667 2.28963L10.0584 4.14083H5.1727L7.10439 2.28963ZM2.72772 5.02732L3.54769 10.7672C3.61008 11.2039 3.98411 11.5283 4.42528 11.5283H10.8058C11.247 11.5283 11.621 11.2039 11.6834 10.7672L12.5034 5.02732H2.72772Z" fill="black"/>
<path fill-rule="evenodd" clip-rule="evenodd" d="M5.2516 6.65259C5.4964 6.65259 5.69484 6.85104 5.69484 7.09583V9.45982C5.69484 9.70462 5.4964 9.90307 5.2516 9.90307C5.0068 9.90307 4.80835 9.70462 4.80835 9.45982V7.09583C4.80835 6.85104 5.0068 6.65259 5.2516 6.65259Z" fill="black"/>
<path fill-rule="evenodd" clip-rule="evenodd" d="M7.61561 6.65259C7.86041 6.65259 8.05886 6.85104 8.05886 7.09583V9.45982C8.05886 9.70462 7.86041 9.90307 7.61561 9.90307C7.37081 9.90307 7.17236 9.70462 7.17236 9.45982V7.09583C7.17236 6.85104 7.37081 6.65259 7.61561 6.65259Z" fill="black"/>
<path fill-rule="evenodd" clip-rule="evenodd" d="M9.97962 6.65259C10.2244 6.65259 10.4229 6.85104 10.4229 7.09583V9.45982C10.4229 9.70462 10.2244 9.90307 9.97962 9.90307C9.73483 9.90307 9.53638 9.70462 9.53638 9.45982V7.09583C9.53638 6.85104 9.73483 6.65259 9.97962 6.65259Z" fill="black"/>
</svg>
