<svg width="72" height="23" viewBox="0 0 72 23" fill="none" xmlns="http://www.w3.org/2000/svg">
<path d="M3.03243 14.0983C3.03243 14.9808 3.25937 15.6932 3.71326 16.2353C4.16714 16.7649 4.76602 17.0296 5.50989 17.0296C6.22854 17.0296 6.81481 16.7586 7.26869 16.2164C7.72258 15.6743 7.94952 14.9619 7.94952 14.0794C7.94952 13.2094 7.72888 12.516 7.2876 11.9991C6.84633 11.4821 6.26006 11.2237 5.5288 11.2237C4.79754 11.2237 4.19866 11.4884 3.73217 12.018C3.26568 12.5349 3.03243 13.2283 3.03243 14.0983ZM10.0676 5.03949V17.0485C10.0676 17.6663 10.0992 18.2274 10.1622 18.7317H8.06299C7.99995 18.3787 7.96843 17.9815 7.96843 17.5402C7.74149 17.9563 7.38847 18.2967 6.90937 18.5615C6.43027 18.8262 5.88182 18.9586 5.26403 18.9586C3.95281 18.9586 2.88744 18.4984 2.06793 17.5781C1.24841 16.6577 0.838655 15.4978 0.838655 14.0983C0.838655 12.7492 1.24841 11.6082 2.06793 10.6752C2.90005 9.74225 3.95281 9.27575 5.22621 9.27575C5.95747 9.27575 6.54374 9.40814 6.98501 9.6729C7.4389 9.93767 7.7541 10.2466 7.93061 10.5996V5.03949H10.0676ZM12.3297 16.2353C12.3297 15.4536 12.5818 14.8295 13.0862 14.363C13.6031 13.8839 14.2776 13.5814 15.1097 13.4553L17.4737 13.096C17.9276 13.0329 18.1545 12.8123 18.1545 12.434C18.1545 12.018 18.0096 11.6839 17.7196 11.4317C17.4296 11.1669 16.9946 11.0346 16.4146 11.0346C15.8599 11.0346 15.4186 11.1922 15.0908 11.5074C14.763 11.8099 14.5739 12.2071 14.5235 12.6988L12.5188 12.2449C12.6071 11.4128 13.0042 10.7068 13.7103 10.1268C14.4163 9.53422 15.3115 9.23793 16.3957 9.23793C17.7322 9.23793 18.7156 9.55943 19.346 10.2024C19.989 10.8454 20.3105 11.6713 20.3105 12.6799V17.2566C20.3105 17.8617 20.3483 18.3535 20.424 18.7317H18.3815C18.3184 18.5426 18.2869 18.1517 18.2869 17.5592C17.6817 18.53 16.7362 19.0154 15.4501 19.0154C14.5172 19.0154 13.7607 18.7443 13.1807 18.2022C12.6134 17.6474 12.3297 16.9918 12.3297 16.2353ZM15.8662 17.2944C16.547 17.2944 17.0955 17.1116 17.5115 16.7459C17.9402 16.3677 18.1545 15.7562 18.1545 14.9115V14.4954L15.7527 14.8548C14.9332 14.9934 14.5235 15.4095 14.5235 16.1029C14.5235 16.4307 14.6432 16.7144 14.8828 16.954C15.1223 17.1809 15.4501 17.2944 15.8662 17.2944ZM25.1562 13.4175V18.7317H22.9624V9.52161H25.0995V10.7509C25.3895 10.2466 25.774 9.87463 26.2531 9.63508C26.7448 9.38292 27.268 9.25684 27.8228 9.25684C28.9071 9.25684 29.7329 9.59726 30.3002 10.2781C30.8676 10.9589 31.1513 11.8352 31.1513 12.9068V18.7317H28.9575V13.2851C28.9575 12.6673 28.8062 12.1756 28.5036 11.8099C28.201 11.4317 27.7219 11.2426 27.0663 11.2426C26.4611 11.2426 25.9883 11.4506 25.6479 11.8667C25.3201 12.2701 25.1562 12.7871 25.1562 13.4175ZM33.1601 19.2423L35.1836 18.7128C35.2593 19.2927 35.5051 19.7655 35.9212 20.1312C36.3499 20.5094 36.8731 20.6985 37.4909 20.6985C39.2308 20.6985 40.1007 19.7781 40.1007 17.9374V16.9729C39.8864 17.3637 39.546 17.6852 39.0795 17.9374C38.613 18.1895 38.0646 18.3156 37.4342 18.3156C36.1986 18.3156 35.1773 17.8933 34.3704 17.0485C33.5761 16.2038 33.179 15.1321 33.179 13.8335C33.179 12.5853 33.5761 11.5263 34.3704 10.6563C35.1647 9.78637 36.186 9.3514 37.4342 9.3514C38.7832 9.3514 39.691 9.79898 40.1575 10.6941V9.52161H42.2756V17.8617C42.2756 19.2234 41.8911 20.3518 41.122 21.247C40.3529 22.1547 39.1614 22.6086 37.5476 22.6086C36.3625 22.6086 35.3665 22.2871 34.5596 21.6441C33.7526 21.0011 33.2862 20.2005 33.1601 19.2423ZM37.7935 16.4434C38.4995 16.4434 39.0669 16.2101 39.4956 15.7436C39.9368 15.2645 40.1575 14.6278 40.1575 13.8335C40.1575 13.0518 39.9368 12.4277 39.4956 11.9612C39.0543 11.4821 38.4869 11.2426 37.7935 11.2426C37.0874 11.2426 36.5075 11.4821 36.0536 11.9612C35.6123 12.4277 35.3917 13.0518 35.3917 13.8335C35.3917 14.6278 35.6123 15.2645 36.0536 15.7436C36.4949 16.2101 37.0748 16.4434 37.7935 16.4434ZM47.1334 18.7317H44.9586V9.52161H47.1334V18.7317ZM45.0342 7.29001C44.7568 7.01263 44.6182 6.67852 44.6182 6.28768C44.6182 5.89683 44.7568 5.56272 45.0342 5.28535C45.3116 4.99537 45.6457 4.85038 46.0366 4.85038C46.44 4.85038 46.7804 4.98906 47.0578 5.26644C47.3352 5.54381 47.4739 5.88422 47.4739 6.28768C47.4739 6.67852 47.3352 7.01263 47.0578 7.29001C46.7804 7.56738 46.44 7.70607 46.0366 7.70607C45.6457 7.70607 45.3116 7.56738 45.0342 7.29001ZM52.1573 18.7317H49.9636V5.03949H52.1573V18.7317ZM54.3827 16.2353C54.3827 15.4536 54.6349 14.8295 55.1392 14.363C55.6561 13.8839 56.3307 13.5814 57.1628 13.4553L59.5268 13.096C59.9807 13.0329 60.2076 12.8123 60.2076 12.434C60.2076 12.018 60.0626 11.6839 59.7726 11.4317C59.4826 11.1669 59.0477 11.0346 58.4677 11.0346C57.913 11.0346 57.4717 11.1922 57.1439 11.5074C56.8161 11.8099 56.627 12.2071 56.5765 12.6988L54.5719 12.2449C54.6601 11.4128 55.0573 10.7068 55.7633 10.1268C56.4694 9.53422 57.3645 9.23793 58.4488 9.23793C59.7852 9.23793 60.7687 9.55943 61.399 10.2024C62.042 10.8454 62.3636 11.6713 62.3636 12.6799V17.2566C62.3636 17.8617 62.4014 18.3535 62.477 18.7317H60.4345C60.3715 18.5426 60.34 18.1517 60.34 17.5592C59.7348 18.53 58.7892 19.0154 57.5032 19.0154C56.5702 19.0154 55.8137 18.7443 55.2338 18.2022C54.6664 17.6474 54.3827 16.9918 54.3827 16.2353ZM57.9193 17.2944C58.6001 17.2944 59.1485 17.1116 59.5646 16.7459C59.9933 16.3677 60.2076 15.7562 60.2076 14.9115V14.4954L57.8058 14.8548C56.9863 14.9934 56.5765 15.4095 56.5765 16.1029C56.5765 16.4307 56.6963 16.7144 56.9358 16.954C57.1754 17.1809 57.5032 17.2944 57.9193 17.2944Z" fill="#505050"/>
<path d="M63.4511 3.59497L61.8129 3.59497V7.82178H60.9619V3.59497L59.3307 3.59497V2.79358L63.4511 2.79358V3.59497ZM69.6809 7.82178H68.8369V4.11978L67.2696 7.82178H66.532L64.9789 4.13396V7.82178H64.1491V2.79358H65.2839L66.915 6.63033L68.5249 2.79358H69.6809V7.82178Z" fill="#505050"/>
</svg>
