<svg width="15" height="15" viewBox="0 0 15 15" fill="none" xmlns="http://www.w3.org/2000/svg">
<path fill-rule="evenodd" clip-rule="evenodd" d="M7.57461 6.20926C8.717 6.20926 9.64309 5.28316 9.64309 4.14077C9.64309 2.99838 8.717 2.07228 7.57461 2.07228C6.43222 2.07228 5.50612 2.99838 5.50612 4.14077C5.50612 5.28316 6.43222 6.20926 7.57461 6.20926ZM7.57461 7.09575C9.2066 7.09575 10.5296 5.77276 10.5296 4.14077C10.5296 2.50878 9.2066 1.18579 7.57461 1.18579C5.94262 1.18579 4.61963 2.50878 4.61963 4.14077C4.61963 5.77276 5.94262 7.09575 7.57461 7.09575Z" fill="black"/>
<path fill-rule="evenodd" clip-rule="evenodd" d="M5.80179 9.31203C4.4146 9.31203 3.29006 10.4366 3.29006 11.8238V12.4148C3.29006 12.6596 3.09161 12.858 2.84681 12.858C2.60201 12.858 2.40356 12.6596 2.40356 12.4148V11.8238C2.40356 9.94698 3.925 8.42554 5.80179 8.42554H9.34777C11.2246 8.42554 12.746 9.94698 12.746 11.8238V12.4148C12.746 12.6596 12.5475 12.858 12.3027 12.858C12.0579 12.858 11.8595 12.6596 11.8595 12.4148V11.8238C11.8595 10.4366 10.735 9.31203 9.34777 9.31203H5.80179Z" fill="black"/>
</svg>
