<svg width="15" height="15" viewBox="0 0 15 15" fill="none" xmlns="http://www.w3.org/2000/svg">
<path fill-rule="evenodd" clip-rule="evenodd" d="M11.1275 9.93941C11.912 9.01272 12.385 7.81397 12.385 6.50475C12.385 3.56717 10.0036 1.18579 7.06603 1.18579C4.12845 1.18579 1.74707 3.56717 1.74707 6.50475C1.74707 9.44234 4.12845 11.8237 7.06603 11.8237C8.37525 11.8237 9.574 11.3507 10.5007 10.5663L12.0716 12.1371C12.2447 12.3102 12.5253 12.3102 12.6984 12.1371C12.8715 11.964 12.8715 11.6834 12.6984 11.5103L11.1275 9.93941ZM11.4985 6.50475C11.4985 8.95274 9.51402 10.9372 7.06603 10.9372C4.61805 10.9372 2.63356 8.95274 2.63356 6.50475C2.63356 4.05677 4.61805 2.07228 7.06603 2.07228C9.51402 2.07228 11.4985 4.05677 11.4985 6.50475Z" fill="black"/>
</svg>
